<svg xmlns="http://www.w3.org/2000/svg" width="1600" height="900" viewBox="0 0 1600 900">
  <defs>
    <linearGradient id="g" x1="0.1464466094067262" y1="0.14644660940672627" x2="0.8535533905932737" y2="0.8535533905932737">
      <stop offset="0%" stop-color="#064e3b"/><stop offset="55%" stop-color="#10b981"/><stop offset="100%" stop-color="#0ea5e9"/>
    </linearGradient>
      <radialGradient id="glow-1300-700" cx="0.5" cy="0.5" r="0.5">
        <stop offset="0%" stop-color="#0ea5e9" stop-opacity="0.38"/>
        <stop offset="100%" stop-color="#0ea5e9" stop-opacity="0"/>
      </radialGradient>
      <radialGradient id="glow-280-220" cx="0.5" cy="0.5" r="0.5">
        <stop offset="0%" stop-color="#10b981" stop-opacity="0.3"/>
        <stop offset="100%" stop-color="#10b981" stop-opacity="0"/>
      </radialGradient></defs>
  <rect width="1600" height="900" fill="url(#g)"/>
  <circle cx="1300" cy="700" r="700" fill="url(#glow-1300-700)"/>
  <circle cx="280" cy="220" r="460" fill="url(#glow-280-220)"/>
  
    <g opacity="0.10" stroke="#ffffff" stroke-width="1.2" fill="none">
      <ellipse cx="800" cy="460" rx="640" ry="320"/>
      <ellipse cx="800" cy="460" rx="510" ry="240"/>
      <ellipse cx="800" cy="460" rx="380" ry="170"/>
      <ellipse cx="800" cy="460" rx="240" ry="100"/>
    </g>
  <g><circle cx="784.7" cy="504.7" r="1.3" fill="#ffffff" opacity="0.06"/><circle cx="390.4" cy="398.9" r="2.3" fill="#ffffff" opacity="0.06"/><circle cx="125.7" cy="791.0" r="2.5" fill="#ffffff" opacity="0.06"/><circle cx="657.3" cy="256.0" r="3.0" fill="#ffffff" opacity="0.06"/><circle cx="1051.9" cy="68.9" r="2.2" fill="#ffffff" opacity="0.06"/><circle cx="376.1" cy="604.8" r="1.4" fill="#ffffff" opacity="0.06"/><circle cx="896.6" cy="438.5" r="1.4" fill="#ffffff" opacity="0.06"/><circle cx="80.1" cy="845.2" r="3.4" fill="#ffffff" opacity="0.06"/><circle cx="193.2" cy="399.8" r="3.4" fill="#ffffff" opacity="0.06"/><circle cx="302.6" cy="377.3" r="2.4" fill="#ffffff" opacity="0.06"/><circle cx="1075.0" cy="252.7" r="1.4" fill="#ffffff" opacity="0.06"/><circle cx="1577.0" cy="401.1" r="1.6" fill="#ffffff" opacity="0.06"/><circle cx="875.3" cy="297.3" r="1.4" fill="#ffffff" opacity="0.06"/><circle cx="1236.5" cy="316.5" r="1.9" fill="#ffffff" opacity="0.06"/><circle cx="127.4" cy="833.6" r="1.6" fill="#ffffff" opacity="0.06"/><circle cx="1414.6" cy="423.6" r="1.6" fill="#ffffff" opacity="0.06"/><circle cx="964.7" cy="361.6" r="2.9" fill="#ffffff" opacity="0.06"/><circle cx="1044.5" cy="122.4" r="1.6" fill="#ffffff" opacity="0.06"/><circle cx="720.6" cy="81.2" r="1.1" fill="#ffffff" opacity="0.06"/><circle cx="659.6" cy="612.8" r="2.6" fill="#ffffff" opacity="0.06"/><circle cx="1528.3" cy="292.4" r="2.1" fill="#ffffff" opacity="0.06"/><circle cx="793.2" cy="395.0" r="3.1" fill="#ffffff" opacity="0.06"/><circle cx="721.2" cy="395.4" r="1.7" fill="#ffffff" opacity="0.06"/><circle cx="378.7" cy="668.7" r="1.3" fill="#ffffff" opacity="0.06"/><circle cx="432.6" cy="690.0" r="3.1" fill="#ffffff" opacity="0.06"/><circle cx="1549.4" cy="834.2" r="3.2" fill="#ffffff" opacity="0.06"/><circle cx="1195.8" cy="576.3" r="2.4" fill="#ffffff" opacity="0.06"/><circle cx="38.6" cy="291.3" r="1.9" fill="#ffffff" opacity="0.06"/><circle cx="344.3" cy="354.2" r="2.7" fill="#ffffff" opacity="0.06"/><circle cx="1179.6" cy="240.0" r="3.4" fill="#ffffff" opacity="0.06"/><circle cx="11.2" cy="323.8" r="2.5" fill="#ffffff" opacity="0.06"/><circle cx="705.8" cy="80.5" r="3.5" fill="#ffffff" opacity="0.06"/><circle cx="730.0" cy="785.1" r="2.5" fill="#ffffff" opacity="0.06"/><circle cx="750.5" cy="112.6" r="3.0" fill="#ffffff" opacity="0.06"/><circle cx="1434.0" cy="238.0" r="1.1" fill="#ffffff" opacity="0.06"/><circle cx="247.1" cy="636.4" r="2.7" fill="#ffffff" opacity="0.06"/><circle cx="1056.5" cy="782.6" r="1.6" fill="#ffffff" opacity="0.06"/><circle cx="1328.9" cy="151.8" r="1.1" fill="#ffffff" opacity="0.06"/></g>
  
    <g opacity="0.55" stroke="#cffafe" stroke-width="2.5" stroke-dasharray="3 10" fill="none">
      <path d="M 360,400 L 700,270 L 1080,360 L 540,680 L 1020,720"/>
    </g>
  
    <g transform="translate(360 360) scale(1)" opacity="0.98">
      <ellipse cx="0" cy="58" rx="22" ry="6" fill="#0b1a14" opacity="0.35"/>
      <path d="M 0 50 C -40 10 -42 -22 -34 -42 C -22 -68 22 -68 34 -42 C 42 -22 40 10 0 50 Z" fill="#fff7c2"/>
      <circle cx="0" cy="-30" r="20" fill="#064e3b"/>
      <text x="0" y="-22" font-family="DejaVu Sans, Helvetica, sans-serif" font-weight="900" font-size="26" text-anchor="middle" fill="#fff7c2">1</text>
    </g>
    <g transform="translate(700 230) scale(1.05)" opacity="0.98">
      <ellipse cx="0" cy="58" rx="22" ry="6" fill="#0b1a14" opacity="0.35"/>
      <path d="M 0 50 C -40 10 -42 -22 -34 -42 C -22 -68 22 -68 34 -42 C 42 -22 40 10 0 50 Z" fill="#fff7c2"/>
      <circle cx="0" cy="-30" r="20" fill="#064e3b"/>
      <text x="0" y="-22" font-family="DejaVu Sans, Helvetica, sans-serif" font-weight="900" font-size="26" text-anchor="middle" fill="#fff7c2">2</text>
    </g>
    <g transform="translate(1080 320) scale(1)" opacity="0.98">
      <ellipse cx="0" cy="58" rx="22" ry="6" fill="#0b1a14" opacity="0.35"/>
      <path d="M 0 50 C -40 10 -42 -22 -34 -42 C -22 -68 22 -68 34 -42 C 42 -22 40 10 0 50 Z" fill="#fff7c2"/>
      <circle cx="0" cy="-30" r="20" fill="#064e3b"/>
      <text x="0" y="-22" font-family="DejaVu Sans, Helvetica, sans-serif" font-weight="900" font-size="26" text-anchor="middle" fill="#fff7c2">3</text>
    </g>
    <g transform="translate(540 640) scale(0.95)" opacity="0.98">
      <ellipse cx="0" cy="58" rx="22" ry="6" fill="#0b1a14" opacity="0.35"/>
      <path d="M 0 50 C -40 10 -42 -22 -34 -42 C -22 -68 22 -68 34 -42 C 42 -22 40 10 0 50 Z" fill="#fff7c2"/>
      <circle cx="0" cy="-30" r="20" fill="#064e3b"/>
      <text x="0" y="-22" font-family="DejaVu Sans, Helvetica, sans-serif" font-weight="900" font-size="26" text-anchor="middle" fill="#fff7c2">4</text>
    </g>
    <g transform="translate(1020 680) scale(1.1)" opacity="0.98">
      <ellipse cx="0" cy="58" rx="22" ry="6" fill="#0b1a14" opacity="0.35"/>
      <path d="M 0 50 C -40 10 -42 -22 -34 -42 C -22 -68 22 -68 34 -42 C 42 -22 40 10 0 50 Z" fill="#fff7c2"/>
      <circle cx="0" cy="-30" r="20" fill="#064e3b"/>
      <text x="0" y="-22" font-family="DejaVu Sans, Helvetica, sans-serif" font-weight="900" font-size="26" text-anchor="middle" fill="#fff7c2">5</text>
    </g>
</svg>
