<svg xmlns="http://www.w3.org/2000/svg" width="1600" height="900" viewBox="0 0 1600 900">
  <defs>
    <linearGradient id="g" x1="0.1464466094067262" y1="0.14644660940672627" x2="0.8535533905932737" y2="0.8535533905932737">
      <stop offset="0%" stop-color="#064e3b"/><stop offset="60%" stop-color="#10b981"/><stop offset="100%" stop-color="#f97056"/>
    </linearGradient>
      <radialGradient id="glow-1280-720" cx="0.5" cy="0.5" r="0.5">
        <stop offset="0%" stop-color="#f97056" stop-opacity="0.4"/>
        <stop offset="100%" stop-color="#f97056" stop-opacity="0"/>
      </radialGradient>
      <radialGradient id="glow-280-220" cx="0.5" cy="0.5" r="0.5">
        <stop offset="0%" stop-color="#10b981" stop-opacity="0.3"/>
        <stop offset="100%" stop-color="#10b981" stop-opacity="0"/>
      </radialGradient></defs>
  <rect width="1600" height="900" fill="url(#g)"/>
  <circle cx="1280" cy="720" r="720" fill="url(#glow-1280-720)"/>
  <circle cx="280" cy="220" r="520" fill="url(#glow-280-220)"/>
  
    <g opacity="0.14" stroke="#ffffff" stroke-width="2" fill="none">
      <rect x="200" y="140" width="1200" height="620" rx="4"/>
      <line x1="800" y1="140" x2="800" y2="760"/>
      <line x1="200" y1="450" x2="500" y2="450"/>
      <line x1="1100" y1="450" x2="1400" y2="450"/>
      <line x1="500" y1="140" x2="500" y2="760"/>
      <line x1="1100" y1="140" x2="1100" y2="760"/>
    </g>
  <g><circle cx="784.7" cy="504.7" r="1.3" fill="#ffffff" opacity="0.08"/><circle cx="390.4" cy="398.9" r="2.3" fill="#ffffff" opacity="0.08"/><circle cx="125.7" cy="791.0" r="2.5" fill="#ffffff" opacity="0.08"/><circle cx="657.3" cy="256.0" r="3.0" fill="#ffffff" opacity="0.08"/><circle cx="1051.9" cy="68.9" r="2.2" fill="#ffffff" opacity="0.08"/><circle cx="376.1" cy="604.8" r="1.4" fill="#ffffff" opacity="0.08"/><circle cx="896.6" cy="438.5" r="1.4" fill="#ffffff" opacity="0.08"/><circle cx="80.1" cy="845.2" r="3.4" fill="#ffffff" opacity="0.08"/><circle cx="193.2" cy="399.8" r="3.4" fill="#ffffff" opacity="0.08"/><circle cx="302.6" cy="377.3" r="2.4" fill="#ffffff" opacity="0.08"/><circle cx="1075.0" cy="252.7" r="1.4" fill="#ffffff" opacity="0.08"/><circle cx="1577.0" cy="401.1" r="1.6" fill="#ffffff" opacity="0.08"/><circle cx="875.3" cy="297.3" r="1.4" fill="#ffffff" opacity="0.08"/><circle cx="1236.5" cy="316.5" r="1.9" fill="#ffffff" opacity="0.08"/><circle cx="127.4" cy="833.6" r="1.6" fill="#ffffff" opacity="0.08"/><circle cx="1414.6" cy="423.6" r="1.6" fill="#ffffff" opacity="0.08"/><circle cx="964.7" cy="361.6" r="2.9" fill="#ffffff" opacity="0.08"/><circle cx="1044.5" cy="122.4" r="1.6" fill="#ffffff" opacity="0.08"/><circle cx="720.6" cy="81.2" r="1.1" fill="#ffffff" opacity="0.08"/><circle cx="659.6" cy="612.8" r="2.6" fill="#ffffff" opacity="0.08"/><circle cx="1528.3" cy="292.4" r="2.1" fill="#ffffff" opacity="0.08"/><circle cx="793.2" cy="395.0" r="3.1" fill="#ffffff" opacity="0.08"/><circle cx="721.2" cy="395.4" r="1.7" fill="#ffffff" opacity="0.08"/><circle cx="378.7" cy="668.7" r="1.3" fill="#ffffff" opacity="0.08"/><circle cx="432.6" cy="690.0" r="3.1" fill="#ffffff" opacity="0.08"/><circle cx="1549.4" cy="834.2" r="3.2" fill="#ffffff" opacity="0.08"/><circle cx="1195.8" cy="576.3" r="2.4" fill="#ffffff" opacity="0.08"/><circle cx="38.6" cy="291.3" r="1.9" fill="#ffffff" opacity="0.08"/><circle cx="344.3" cy="354.2" r="2.7" fill="#ffffff" opacity="0.08"/><circle cx="1179.6" cy="240.0" r="3.4" fill="#ffffff" opacity="0.08"/><circle cx="11.2" cy="323.8" r="2.5" fill="#ffffff" opacity="0.08"/><circle cx="705.8" cy="80.5" r="3.5" fill="#ffffff" opacity="0.08"/></g>
  
    <g opacity="0.55">
      <line x1="160" y1="490" x2="1440" y2="490" stroke="#ffffff" stroke-width="1.6"/>
      <line x1="160" y1="468" x2="1440" y2="468" stroke="#ffffff" stroke-width="1.2"/>
      <line x1="160.0" y1="468" x2="160.0" y2="490" stroke="#ffffff" stroke-width="0.9"/><line x1="180.3" y1="468" x2="180.3" y2="490" stroke="#ffffff" stroke-width="0.9"/><line x1="200.6" y1="468" x2="200.6" y2="490" stroke="#ffffff" stroke-width="0.9"/><line x1="221.0" y1="468" x2="221.0" y2="490" stroke="#ffffff" stroke-width="0.9"/><line x1="241.3" y1="468" x2="241.3" y2="490" stroke="#ffffff" stroke-width="0.9"/><line x1="261.6" y1="468" x2="261.6" y2="490" stroke="#ffffff" stroke-width="0.9"/><line x1="281.9" y1="468" x2="281.9" y2="490" stroke="#ffffff" stroke-width="0.9"/><line x1="302.2" y1="468" x2="302.2" y2="490" stroke="#ffffff" stroke-width="0.9"/><line x1="322.5" y1="468" x2="322.5" y2="490" stroke="#ffffff" stroke-width="0.9"/><line x1="342.9" y1="468" x2="342.9" y2="490" stroke="#ffffff" stroke-width="0.9"/><line x1="363.2" y1="468" x2="363.2" y2="490" stroke="#ffffff" stroke-width="0.9"/><line x1="383.5" y1="468" x2="383.5" y2="490" stroke="#ffffff" stroke-width="0.9"/><line x1="403.8" y1="468" x2="403.8" y2="490" stroke="#ffffff" stroke-width="0.9"/><line x1="424.1" y1="468" x2="424.1" y2="490" stroke="#ffffff" stroke-width="0.9"/><line x1="444.4" y1="468" x2="444.4" y2="490" stroke="#ffffff" stroke-width="0.9"/><line x1="464.8" y1="468" x2="464.8" y2="490" stroke="#ffffff" stroke-width="0.9"/><line x1="485.1" y1="468" x2="485.1" y2="490" stroke="#ffffff" stroke-width="0.9"/><line x1="505.4" y1="468" x2="505.4" y2="490" stroke="#ffffff" stroke-width="0.9"/><line x1="525.7" y1="468" x2="525.7" y2="490" stroke="#ffffff" stroke-width="0.9"/><line x1="546.0" y1="468" x2="546.0" y2="490" stroke="#ffffff" stroke-width="0.9"/><line x1="566.3" y1="468" x2="566.3" y2="490" stroke="#ffffff" stroke-width="0.9"/><line x1="586.7" y1="468" x2="586.7" y2="490" stroke="#ffffff" stroke-width="0.9"/><line x1="607.0" y1="468" x2="607.0" y2="490" stroke="#ffffff" stroke-width="0.9"/><line x1="627.3" y1="468" x2="627.3" y2="490" stroke="#ffffff" stroke-width="0.9"/><line x1="647.6" y1="468" x2="647.6" y2="490" stroke="#ffffff" stroke-width="0.9"/><line x1="667.9" y1="468" x2="667.9" y2="490" stroke="#ffffff" stroke-width="0.9"/><line x1="688.3" y1="468" x2="688.3" y2="490" stroke="#ffffff" stroke-width="0.9"/><line x1="708.6" y1="468" x2="708.6" y2="490" stroke="#ffffff" stroke-width="0.9"/><line x1="728.9" y1="468" x2="728.9" y2="490" stroke="#ffffff" stroke-width="0.9"/><line x1="749.2" y1="468" x2="749.2" y2="490" stroke="#ffffff" stroke-width="0.9"/><line x1="769.5" y1="468" x2="769.5" y2="490" stroke="#ffffff" stroke-width="0.9"/><line x1="789.8" y1="468" x2="789.8" y2="490" stroke="#ffffff" stroke-width="0.9"/><line x1="810.2" y1="468" x2="810.2" y2="490" stroke="#ffffff" stroke-width="0.9"/><line x1="830.5" y1="468" x2="830.5" y2="490" stroke="#ffffff" stroke-width="0.9"/><line x1="850.8" y1="468" x2="850.8" y2="490" stroke="#ffffff" stroke-width="0.9"/><line x1="871.1" y1="468" x2="871.1" y2="490" stroke="#ffffff" stroke-width="0.9"/><line x1="891.4" y1="468" x2="891.4" y2="490" stroke="#ffffff" stroke-width="0.9"/><line x1="911.7" y1="468" x2="911.7" y2="490" stroke="#ffffff" stroke-width="0.9"/><line x1="932.1" y1="468" x2="932.1" y2="490" stroke="#ffffff" stroke-width="0.9"/><line x1="952.4" y1="468" x2="952.4" y2="490" stroke="#ffffff" stroke-width="0.9"/><line x1="972.7" y1="468" x2="972.7" y2="490" stroke="#ffffff" stroke-width="0.9"/><line x1="993.0" y1="468" x2="993.0" y2="490" stroke="#ffffff" stroke-width="0.9"/><line x1="1013.3" y1="468" x2="1013.3" y2="490" stroke="#ffffff" stroke-width="0.9"/><line x1="1033.7" y1="468" x2="1033.7" y2="490" stroke="#ffffff" stroke-width="0.9"/><line x1="1054.0" y1="468" x2="1054.0" y2="490" stroke="#ffffff" stroke-width="0.9"/><line x1="1074.3" y1="468" x2="1074.3" y2="490" stroke="#ffffff" stroke-width="0.9"/><line x1="1094.6" y1="468" x2="1094.6" y2="490" stroke="#ffffff" stroke-width="0.9"/><line x1="1114.9" y1="468" x2="1114.9" y2="490" stroke="#ffffff" stroke-width="0.9"/><line x1="1135.2" y1="468" x2="1135.2" y2="490" stroke="#ffffff" stroke-width="0.9"/><line x1="1155.6" y1="468" x2="1155.6" y2="490" stroke="#ffffff" stroke-width="0.9"/><line x1="1175.9" y1="468" x2="1175.9" y2="490" stroke="#ffffff" stroke-width="0.9"/><line x1="1196.2" y1="468" x2="1196.2" y2="490" stroke="#ffffff" stroke-width="0.9"/><line x1="1216.5" y1="468" x2="1216.5" y2="490" stroke="#ffffff" stroke-width="0.9"/><line x1="1236.8" y1="468" x2="1236.8" y2="490" stroke="#ffffff" stroke-width="0.9"/><line x1="1257.1" y1="468" x2="1257.1" y2="490" stroke="#ffffff" stroke-width="0.9"/><line x1="1277.5" y1="468" x2="1277.5" y2="490" stroke="#ffffff" stroke-width="0.9"/><line x1="1297.8" y1="468" x2="1297.8" y2="490" stroke="#ffffff" stroke-width="0.9"/><line x1="1318.1" y1="468" x2="1318.1" y2="490" stroke="#ffffff" stroke-width="0.9"/><line x1="1338.4" y1="468" x2="1338.4" y2="490" stroke="#ffffff" stroke-width="0.9"/><line x1="1358.7" y1="468" x2="1358.7" y2="490" stroke="#ffffff" stroke-width="0.9"/><line x1="1379.0" y1="468" x2="1379.0" y2="490" stroke="#ffffff" stroke-width="0.9"/><line x1="1399.4" y1="468" x2="1399.4" y2="490" stroke="#ffffff" stroke-width="0.9"/><line x1="1419.7" y1="468" x2="1419.7" y2="490" stroke="#ffffff" stroke-width="0.9"/><line x1="1440.0" y1="468" x2="1440.0" y2="490" stroke="#ffffff" stroke-width="0.9"/>
    </g>
  
    <g transform="translate(620 280) rotate(-22) scale(1.1)" fill="#0b1a14" opacity="0.95">
      <rect x="-58" y="-92" width="116" height="138" rx="46"/>
      <rect x="-50" y="-84" width="100" height="122" rx="40" fill="none" stroke="rgba(0,0,0,0.18)" stroke-width="2"/>
      <rect x="-14" y="42" width="28" height="64" rx="6"/>
      <rect x="-20" y="98" width="40" height="18" rx="5"/>
    </g>
    <g transform="translate(980 280) rotate(22) scale(1.1)" fill="#f1faf6" opacity="0.97">
      <rect x="-58" y="-92" width="116" height="138" rx="46"/>
      <rect x="-50" y="-84" width="100" height="122" rx="40" fill="none" stroke="rgba(0,0,0,0.18)" stroke-width="2"/>
      <rect x="-14" y="42" width="28" height="64" rx="6"/>
      <rect x="-20" y="98" width="40" height="18" rx="5"/>
    </g>
    <g transform="translate(620 700) rotate(-158) scale(1.1)" fill="#f1faf6" opacity="0.97">
      <rect x="-58" y="-92" width="116" height="138" rx="46"/>
      <rect x="-50" y="-84" width="100" height="122" rx="40" fill="none" stroke="rgba(0,0,0,0.18)" stroke-width="2"/>
      <rect x="-14" y="42" width="28" height="64" rx="6"/>
      <rect x="-20" y="98" width="40" height="18" rx="5"/>
    </g>
    <g transform="translate(980 700) rotate(158) scale(1.1)" fill="#0b1a14" opacity="0.95">
      <rect x="-58" y="-92" width="116" height="138" rx="46"/>
      <rect x="-50" y="-84" width="100" height="122" rx="40" fill="none" stroke="rgba(0,0,0,0.18)" stroke-width="2"/>
      <rect x="-14" y="42" width="28" height="64" rx="6"/>
      <rect x="-20" y="98" width="40" height="18" rx="5"/>
    </g>
  
    <g>
      <path d="M 1380 180 Q 1180 280 1020 380 Q 880 460 800 490" stroke="#fff1ec" stroke-width="4" stroke-dasharray="2 10" fill="none" opacity="0.6" stroke-linecap="round"/>
      <circle cx="800" cy="490" r="22" fill="#fff1ec"/>
      <circle cx="800" cy="490" r="22" fill="none" stroke="#f97056" stroke-width="3" opacity="0.85"/>
      <circle cx="800" cy="490" r="11" fill="#f97056" opacity="0.7"/>
      <circle cx="794" cy="484" r="4" fill="#fff7f2" opacity="0.9"/>
    </g>
</svg>
