<svg xmlns="http://www.w3.org/2000/svg" width="1600" height="900" viewBox="0 0 1600 900">
  <defs>
    <linearGradient id="g" x1="0.1464466094067262" y1="0.14644660940672627" x2="0.8535533905932737" y2="0.8535533905932737">
      <stop offset="0%" stop-color="#022c22"/><stop offset="50%" stop-color="#064e3b"/><stop offset="100%" stop-color="#10b981"/>
    </linearGradient>
      <radialGradient id="glow-1280-720" cx="0.5" cy="0.5" r="0.5">
        <stop offset="0%" stop-color="#10b981" stop-opacity="0.32"/>
        <stop offset="100%" stop-color="#10b981" stop-opacity="0"/>
      </radialGradient></defs>
  <rect width="1600" height="900" fill="url(#g)"/>
  <circle cx="1280" cy="720" r="700" fill="url(#glow-1280-720)"/>
  <g><circle cx="784.7" cy="504.7" r="1.3" fill="#ffffff" opacity="0.05"/><circle cx="390.4" cy="398.9" r="2.3" fill="#ffffff" opacity="0.05"/><circle cx="125.7" cy="791.0" r="2.5" fill="#ffffff" opacity="0.05"/><circle cx="657.3" cy="256.0" r="3.0" fill="#ffffff" opacity="0.05"/><circle cx="1051.9" cy="68.9" r="2.2" fill="#ffffff" opacity="0.05"/><circle cx="376.1" cy="604.8" r="1.4" fill="#ffffff" opacity="0.05"/><circle cx="896.6" cy="438.5" r="1.4" fill="#ffffff" opacity="0.05"/><circle cx="80.1" cy="845.2" r="3.4" fill="#ffffff" opacity="0.05"/><circle cx="193.2" cy="399.8" r="3.4" fill="#ffffff" opacity="0.05"/><circle cx="302.6" cy="377.3" r="2.4" fill="#ffffff" opacity="0.05"/><circle cx="1075.0" cy="252.7" r="1.4" fill="#ffffff" opacity="0.05"/><circle cx="1577.0" cy="401.1" r="1.6" fill="#ffffff" opacity="0.05"/><circle cx="875.3" cy="297.3" r="1.4" fill="#ffffff" opacity="0.05"/><circle cx="1236.5" cy="316.5" r="1.9" fill="#ffffff" opacity="0.05"/><circle cx="127.4" cy="833.6" r="1.6" fill="#ffffff" opacity="0.05"/><circle cx="1414.6" cy="423.6" r="1.6" fill="#ffffff" opacity="0.05"/><circle cx="964.7" cy="361.6" r="2.9" fill="#ffffff" opacity="0.05"/><circle cx="1044.5" cy="122.4" r="1.6" fill="#ffffff" opacity="0.05"/><circle cx="720.6" cy="81.2" r="1.1" fill="#ffffff" opacity="0.05"/><circle cx="659.6" cy="612.8" r="2.6" fill="#ffffff" opacity="0.05"/><circle cx="1528.3" cy="292.4" r="2.1" fill="#ffffff" opacity="0.05"/><circle cx="793.2" cy="395.0" r="3.1" fill="#ffffff" opacity="0.05"/><circle cx="721.2" cy="395.4" r="1.7" fill="#ffffff" opacity="0.05"/><circle cx="378.7" cy="668.7" r="1.3" fill="#ffffff" opacity="0.05"/><circle cx="432.6" cy="690.0" r="3.1" fill="#ffffff" opacity="0.05"/><circle cx="1549.4" cy="834.2" r="3.2" fill="#ffffff" opacity="0.05"/><circle cx="1195.8" cy="576.3" r="2.4" fill="#ffffff" opacity="0.05"/><circle cx="38.6" cy="291.3" r="1.9" fill="#ffffff" opacity="0.05"/></g>
  <g><rect x="420" y="230" width="32" height="32" rx="3" fill="#ecfdf5" opacity="0.92"/><rect x="456" y="230" width="32" height="32" rx="3" fill="#ecfdf5" opacity="0.92"/><rect x="492" y="230" width="32" height="32" rx="3" fill="#ecfdf5" opacity="0.92"/><rect x="528" y="230" width="32" height="32" rx="3" fill="#ecfdf5" opacity="0.92"/><rect x="600" y="230" width="32" height="32" rx="3" fill="#ecfdf5" opacity="0.92"/><rect x="780" y="230" width="32" height="32" rx="3" fill="#ecfdf5" opacity="0.92"/><rect x="816" y="230" width="32" height="32" rx="3" fill="#ecfdf5" opacity="0.92"/><rect x="456" y="266" width="32" height="32" rx="3" fill="#ecfdf5" opacity="0.92"/><rect x="492" y="266" width="32" height="32" rx="3" fill="#ecfdf5" opacity="0.92"/><rect x="636" y="266" width="32" height="32" rx="3" fill="#ecfdf5" opacity="0.92"/><rect x="672" y="266" width="32" height="32" rx="3" fill="#ecfdf5" opacity="0.92"/><rect x="816" y="266" width="32" height="32" rx="3" fill="#ecfdf5" opacity="0.92"/><rect x="492" y="302" width="32" height="32" rx="3" fill="#ecfdf5" opacity="0.92"/><rect x="528" y="302" width="32" height="32" rx="3" fill="#ecfdf5" opacity="0.92"/><rect x="600" y="302" width="32" height="32" rx="3" fill="#ecfdf5" opacity="0.92"/><rect x="636" y="302" width="32" height="32" rx="3" fill="#ecfdf5" opacity="0.92"/><rect x="708" y="302" width="32" height="32" rx="3" fill="#ecfdf5" opacity="0.92"/><rect x="744" y="302" width="32" height="32" rx="3" fill="#ecfdf5" opacity="0.92"/><rect x="780" y="302" width="32" height="32" rx="3" fill="#ecfdf5" opacity="0.92"/><rect x="816" y="302" width="32" height="32" rx="3" fill="#ecfdf5" opacity="0.92"/><rect x="528" y="338" width="32" height="32" rx="3" fill="#ecfdf5" opacity="0.92"/><rect x="564" y="338" width="32" height="32" rx="3" fill="#ecfdf5" opacity="0.92"/><rect x="636" y="338" width="32" height="32" rx="3" fill="#ecfdf5" opacity="0.92"/><rect x="780" y="338" width="32" height="32" rx="3" fill="#ecfdf5" opacity="0.92"/><rect x="816" y="338" width="32" height="32" rx="3" fill="#ecfdf5" opacity="0.92"/><rect x="420" y="374" width="32" height="32" rx="3" fill="#ecfdf5" opacity="0.92"/><rect x="564" y="374" width="32" height="32" rx="3" fill="#ecfdf5" opacity="0.92"/><rect x="600" y="374" width="32" height="32" rx="3" fill="#ecfdf5" opacity="0.92"/><rect x="672" y="374" width="32" height="32" rx="3" fill="#ecfdf5" opacity="0.92"/><rect x="780" y="374" width="32" height="32" rx="3" fill="#ecfdf5" opacity="0.92"/><rect x="420" y="410" width="32" height="32" rx="3" fill="#ecfdf5" opacity="0.92"/><rect x="456" y="410" width="32" height="32" rx="3" fill="#ecfdf5" opacity="0.92"/><rect x="492" y="410" width="32" height="32" rx="3" fill="#ecfdf5" opacity="0.92"/><rect x="528" y="410" width="32" height="32" rx="3" fill="#ecfdf5" opacity="0.92"/><rect x="672" y="410" width="32" height="32" rx="3" fill="#ecfdf5" opacity="0.92"/><rect x="708" y="410" width="32" height="32" rx="3" fill="#ecfdf5" opacity="0.92"/><rect x="744" y="410" width="32" height="32" rx="3" fill="#ecfdf5" opacity="0.92"/><rect x="780" y="410" width="32" height="32" rx="3" fill="#ecfdf5" opacity="0.92"/><rect x="816" y="410" width="32" height="32" rx="3" fill="#ecfdf5" opacity="0.92"/><rect x="420" y="446" width="32" height="32" rx="3" fill="#ecfdf5" opacity="0.92"/><rect x="456" y="446" width="32" height="32" rx="3" fill="#ecfdf5" opacity="0.92"/><rect x="528" y="446" width="32" height="32" rx="3" fill="#ecfdf5" opacity="0.92"/><rect x="564" y="446" width="32" height="32" rx="3" fill="#ecfdf5" opacity="0.92"/><rect x="600" y="446" width="32" height="32" rx="3" fill="#ecfdf5" opacity="0.92"/><rect x="672" y="446" width="32" height="32" rx="3" fill="#ecfdf5" opacity="0.92"/><rect x="708" y="446" width="32" height="32" rx="3" fill="#ecfdf5" opacity="0.92"/><rect x="780" y="446" width="32" height="32" rx="3" fill="#ecfdf5" opacity="0.92"/><rect x="420" y="482" width="32" height="32" rx="3" fill="#ecfdf5" opacity="0.92"/><rect x="456" y="482" width="32" height="32" rx="3" fill="#ecfdf5" opacity="0.92"/><rect x="528" y="482" width="32" height="32" rx="3" fill="#ecfdf5" opacity="0.92"/><rect x="564" y="482" width="32" height="32" rx="3" fill="#ecfdf5" opacity="0.92"/><rect x="600" y="482" width="32" height="32" rx="3" fill="#ecfdf5" opacity="0.92"/><rect x="672" y="482" width="32" height="32" rx="3" fill="#ecfdf5" opacity="0.92"/><rect x="744" y="482" width="32" height="32" rx="3" fill="#ecfdf5" opacity="0.92"/><rect x="420" y="518" width="32" height="32" rx="3" fill="#ecfdf5" opacity="0.92"/><rect x="564" y="518" width="32" height="32" rx="3" fill="#ecfdf5" opacity="0.92"/><rect x="600" y="518" width="32" height="32" rx="3" fill="#ecfdf5" opacity="0.92"/><rect x="708" y="518" width="32" height="32" rx="3" fill="#ecfdf5" opacity="0.92"/><rect x="780" y="518" width="32" height="32" rx="3" fill="#ecfdf5" opacity="0.92"/><rect x="816" y="518" width="32" height="32" rx="3" fill="#ecfdf5" opacity="0.92"/><rect x="420" y="554" width="32" height="32" rx="3" fill="#ecfdf5" opacity="0.92"/><rect x="456" y="554" width="32" height="32" rx="3" fill="#ecfdf5" opacity="0.92"/><rect x="492" y="554" width="32" height="32" rx="3" fill="#ecfdf5" opacity="0.92"/><rect x="528" y="554" width="32" height="32" rx="3" fill="#ecfdf5" opacity="0.92"/><rect x="564" y="554" width="32" height="32" rx="3" fill="#ecfdf5" opacity="0.92"/><rect x="744" y="554" width="32" height="32" rx="3" fill="#ecfdf5" opacity="0.92"/><rect x="420" y="590" width="32" height="32" rx="3" fill="#ecfdf5" opacity="0.92"/><rect x="456" y="590" width="32" height="32" rx="3" fill="#ecfdf5" opacity="0.92"/><rect x="564" y="590" width="32" height="32" rx="3" fill="#ecfdf5" opacity="0.92"/><rect x="672" y="590" width="32" height="32" rx="3" fill="#ecfdf5" opacity="0.92"/><rect x="708" y="590" width="32" height="32" rx="3" fill="#ecfdf5" opacity="0.92"/><rect x="456" y="626" width="32" height="32" rx="3" fill="#ecfdf5" opacity="0.92"/><rect x="528" y="626" width="32" height="32" rx="3" fill="#ecfdf5" opacity="0.92"/><rect x="600" y="626" width="32" height="32" rx="3" fill="#ecfdf5" opacity="0.92"/><rect x="672" y="626" width="32" height="32" rx="3" fill="#ecfdf5" opacity="0.92"/><rect x="708" y="626" width="32" height="32" rx="3" fill="#ecfdf5" opacity="0.92"/></g>
  
    
    <g>
      <rect x="420" y="230" width="108" height="108" rx="6" fill="#ecfdf5"/>
      <rect x="428" y="238" width="92" height="92" rx="4" fill="#064e3b"/>
      <rect x="442" y="252" width="64" height="64" rx="3" fill="#ecfdf5"/>
    </g>
    
    <g>
      <rect x="744" y="230" width="108" height="108" rx="6" fill="#ecfdf5"/>
      <rect x="752" y="238" width="92" height="92" rx="4" fill="#064e3b"/>
      <rect x="766" y="252" width="64" height="64" rx="3" fill="#ecfdf5"/>
    </g>
    
    <g>
      <rect x="420" y="554" width="108" height="108" rx="6" fill="#ecfdf5"/>
      <rect x="428" y="562" width="92" height="92" rx="4" fill="#064e3b"/>
      <rect x="442" y="576" width="64" height="64" rx="3" fill="#ecfdf5"/>
    </g>
  
    <g transform="translate(1180 380)">
      <rect x="-110" y="-180" width="220" height="360" rx="14" fill="#f0fdf4" opacity="0.95"/>
      <path d="M -110 160 L -90 178 L -70 160 L -50 178 L -30 160 L -10 178 L 10 160 L 30 178 L 50 160 L 70 178 L 90 160 L 110 178 L 110 180 L -110 180 Z" fill="#f0fdf4"/>
      <rect x="-82" y="-148" width="164" height="14" rx="3" fill="#10b981" opacity="0.85"/>
      <rect x="-82" y="-118" width="120" height="8" rx="2" fill="#0f766e" opacity="0.6"/>
      <rect x="-82" y="-98" width="100" height="8" rx="2" fill="#0f766e" opacity="0.4"/>
      <rect x="-82" y="-78" width="140" height="8" rx="2" fill="#0f766e" opacity="0.4"/>
      <rect x="-82" y="-58" width="80" height="8" rx="2" fill="#0f766e" opacity="0.4"/>
      <circle cx="0" cy="40" r="60" fill="#10b981"/>
      <path d="M -28 40 L -8 60 L 32 16" stroke="#ffffff" stroke-width="10" fill="none" stroke-linecap="round" stroke-linejoin="round"/>
    </g>
</svg>
